<svg xmlns="http://www.w3.org/2000/svg" width="150" height="150"><rect width="100%" height="100%" fill="#98a0ae"/><path fill="#a57e22" d="M60.92 130.73a6.5 6.5 0 0 0-8.94-.27l-6.94-7.37a10.67 10.67 0 0 0-14.66-15.5l-6.9-7.32a6.5 6.5 0 0 0-.08-9.16 6.52 6.52 0 1 0-9.24 9.23 6.5 6.5 0 0 0 8.9.3l6.9 7.34a10.67 10.67 0 0 0 14.66 15.5l6.94 7.36a6.52 6.52 0 0 0 9.36 9.12 6.52 6.52 0 0 0 0-9.23m-42.1-33.29a3.49 3.49 0 0 1-3.48-3.47c0-1.9 1.57-3.47 3.48-3.47 1.9 0 3.47 1.56 3.47 3.47a3.51 3.51 0 0 1-3.47 3.47m19.77 26.99a7.5 7.5 0 0 1 0-14.96 7.5 7.5 0 0 1 0 14.96m16.9 13.01a3.49 3.49 0 0 1-3.47-3.47c0-1.9 1.57-3.47 3.48-3.47 1.9 0 3.47 1.56 3.47 3.47a3.46 3.46 0 0 1-3.47 3.47zm80.43-6.71a6.53 6.53 0 0 0-9.16-.08l-6.99-7.33c.08-.08.2-.15.27-.27a10.67 10.67 0 0 0 0-15.07 10.61 10.61 0 0 0-14.89-.16l-6.9-7.32c.07-.04.1-.12.19-.16a6.52 6.52 0 1 0-9.24-9.23 6.52 6.52 0 0 0 8.62 9.77l6.95 7.36a10.67 10.67 0 0 0 .23 14.85 10.64 10.64 0 0 0 14.39.61l6.98 7.4a6.52 6.52 0 0 0 9.58 8.85 6.63 6.63 0 0 0-.03-9.22M94.8 100.57a3.49 3.49 0 0 1-3.47-3.47c0-1.9 1.56-3.47 3.47-3.47 1.9 0 3.47 1.56 3.47 3.47a3.51 3.51 0 0 1-3.47 3.47m17.67 23.7a7.5 7.5 0 0 1 0-14.96 7.5 7.5 0 0 1 0 14.96m18.9 16.3a3.49 3.49 0 0 1-3.48-3.47c0-1.9 1.57-3.47 3.47-3.47 1.91 0 3.48 1.56 3.48 3.47a3.51 3.51 0 0 1-3.48 3.47zm-48.82-32.6a10.67 10.67 0 1 0-15.08 15.1 10.67 10.67 0 0 0 15.08-15.1m-7.52 16.65a7.5 7.5 0 0 1 0-14.96 7.5 7.5 0 0 1 0 14.96m37.44-62.02a12.44 12.44 0 1 0 0 24.89 12.44 12.44 0 0 0 0-24.9zm-2.21 22.02a7.5 7.5 0 0 1 0-14.96 7.5 7.5 0 0 1 7.48 7.48 7.52 7.52 0 0 1-7.48 7.48m25.65-34.93a6.55 6.55 0 0 0-8.94-.26l-6.94-7.37a10.67 10.67 0 0 0-14.66-15.5l-6.9-7.32a6.5 6.5 0 0 0-.08-9.16 6.52 6.52 0 1 0-9.24 9.23 6.5 6.5 0 0 0 8.9.3l6.9 7.34a10.67 10.67 0 0 0 14.66 15.5l6.94 7.36a6.52 6.52 0 1 0 9.36-.12M92.14 18.13a3.49 3.49 0 0 1-3.48-3.47c0-1.91 1.57-3.48 3.48-3.48 1.9 0 3.47 1.57 3.47 3.48a3.49 3.49 0 0 1-3.47 3.47m21.33 25.04a7.5 7.5 0 0 1 0-14.96 7.5 7.5 0 0 1 0 14.96m16.11 14.62a3.49 3.49 0 0 1-3.47-3.48c0-1.9 1.56-3.47 3.47-3.47 1.9 0 3.47 1.56 3.47 3.47a3.46 3.46 0 0 1-3.47 3.48M23.44 130.73a6.52 6.52 0 1 0-9.24 9.23 6.52 6.52 0 1 0 9.24-9.23m-5.7 9.5a3.49 3.49 0 0 1-3.47-3.47c0-1.91 1.57-3.48 3.48-3.48 1.9 0 3.47 1.57 3.47 3.48 0 1.9-1.56 3.47-3.47 3.47zm5.7-90.54a6.52 6.52 0 1 0-9.24 9.24 6.52 6.52 0 1 0 9.24-9.24m-6.46 7.9a3.49 3.49 0 0 1-3.47-3.47c0-1.9 1.57-3.47 3.47-3.47 1.91 0 3.48 1.56 3.48 3.47s-1.57 3.48-3.48 3.48zm43.94-7.9a6.54 6.54 0 0 0-8.9-.3l-6.94-7.37a10.67 10.67 0 0 0-14.62-15.5l-6.91-7.32a6.53 6.53 0 1 0-.42.38l6.9 7.33s-.03 0-.03.04A10.67 10.67 0 0 0 44.66 42.4l6.94 7.37a6.52 6.52 0 1 0 9.31-.08zM20.15 19.43a3.49 3.49 0 0 1-3.47-3.48c0-1.9 1.56-3.47 3.47-3.47s3.48 1.57 3.48 3.47c0 1.91-1.57 3.48-3.48 3.48M36.41 40.6a7.5 7.5 0 0 1 0-14.96 7.5 7.5 0 0 1 0 14.96m20.5 15.42a3.49 3.49 0 0 1-3.47-3.47c0-1.91 1.56-3.48 3.47-3.48 1.9 0 3.47 1.57 3.47 3.48 0 1.9-1.56 3.47-3.47 3.47m79 35.08a6.52 6.52 0 1 0-9.23 9.23 6.52 6.52 0 1 0 9.24-9.23zm-4.54 6.49a3.49 3.49 0 0 1-3.47-3.48c0-1.9 1.57-3.47 3.47-3.47 1.91 0 3.48 1.56 3.48 3.47a3.49 3.49 0 0 1-3.48 3.48m4.55-87.56a6.52 6.52 0 1 0-9.24 9.23 6.52 6.52 0 1 0 9.24-9.23m-3.21 7.02a3.49 3.49 0 0 1-3.47-3.47c0-1.91 1.56-3.48 3.47-3.48 1.9 0 3.47 1.57 3.47 3.48 0 1.9-1.56 3.47-3.47 3.47M98.4 49.7a6.52 6.52 0 1 0-9.24 9.24l.11.12-6.1 6.6a12.44 12.44 0 0 0-16.9 18.24l-6.12 6.6a6.52 6.52 0 1 0 .76 9.89 6.52 6.52 0 0 0-.3-9.5l6.1-6.57a12.44 12.44 0 0 0 20.76-9.24c.01-3.54-1.48-6.71-3.84-8.96l6.14-6.6a6.5 6.5 0 0 0 8.67-.5 6.65 6.65 0 0 0-.04-9.32M61.07 96.76c0 1.9-1.57 3.47-3.47 3.47a3.49 3.49 0 0 1-3.48-3.47c0-1.91 1.57-3.48 3.48-3.48a3.44 3.44 0 0 1 3.47 3.48M72.9 79.73a7.5 7.5 0 0 1 0-14.96 7.5 7.5 0 0 1 0 14.96M94.8 56.5a3.49 3.49 0 0 1-3.46-3.47c0-1.91 1.56-3.48 3.47-3.48 1.9 0 3.47 1.57 3.47 3.48 0 1.9-1.56 3.47-3.47 3.47zm3.6 74.24a6.52 6.52 0 1 0-9.24 9.23 6.52 6.52 0 1 0 9.24-9.23m-4.62 6.37a3.49 3.49 0 0 1-3.47-3.47c0-1.91 1.56-3.48 3.47-3.48 1.9 0 3.47 1.57 3.47 3.48 0 1.9-1.56 3.47-3.47 3.47M60.92 10.04a6.52 6.52 0 1 0-9.24 9.23 6.52 6.52 0 1 0 9.24-9.23m-4.62 6.22a3.49 3.49 0 0 1-3.48-3.47c0-1.91 1.57-3.48 3.48-3.48 1.9 0 3.47 1.57 3.47 3.48 0 1.9-1.56 3.47-3.47 3.47m26.26 10.69a10.67 10.67 0 1 0-15.08 15.09 10.67 10.67 0 0 0 15.08-15.1zm-6.64 14.08a7.5 7.5 0 0 1 0-14.96 7.5 7.5 0 0 1 0 14.96M37.52 62.6a12.44 12.44 0 1 0 0 24.89 12.44 12.44 0 0 0 0-24.9zM35.42 85a7.5 7.5 0 0 1 0-14.96 7.5 7.5 0 0 1 0 14.96m102.14-10c0 6.87 5.57 12.44 12.44 12.44V62.6A12.44 12.44 0 0 0 137.56 75M0 62.6v24.84c6.87 0 12.63-5.57 12.63-12.44A12.63 12.63 0 0 0 0 62.6M116.37 3.9a5.5 5.5 0 0 0 1.6-3.9h-10.95a5.49 5.49 0 0 0 9.35 3.9m-37.48 0A5.5 5.5 0 0 0 80.5 0H69.55a5.49 5.49 0 0 0 9.35 3.9zm-37.52 0a5.5 5.5 0 0 0 1.6-3.9H32.03a5.49 5.49 0 0 0 9.35 3.9zM144.5 0a5.49 5.49 0 0 0 5.5 5.53V0zM5.5 0H0v5.53A5.52 5.52 0 0 0 5.5 0m2.06 26.95c-2.1-2.1-4.85-3.1-7.56-3.1V45.2c2.75 0 5.5-1.07 7.56-3.17a10.67 10.67 0 0 0 0-15.07zm134.88 15.11c2.06 2.1 4.81 3.13 7.56 3.13V23.86a10.67 10.67 0 0 0-7.56 18.2m-33.81 104.05a5.5 5.5 0 0 0-1.6 3.89h10.95a5.49 5.49 0 0 0-9.35-3.9zm-37.48 0a5.5 5.5 0 0 0-1.6 3.89H80.5a5.49 5.49 0 0 0-9.35-3.9zm-37.52 0a5.5 5.5 0 0 0-1.6 3.89h10.95a5.49 5.49 0 0 0-9.35-3.9zM144.5 150h5.5v-5.5a5.49 5.49 0 0 0-5.5 5.5M0 144.5v5.5h5.53c0-1.41-.53-2.79-1.6-3.9A5.7 5.7 0 0 0 0 144.5m0-39.61v21.33a10.67 10.67 0 1 0 0-21.34zm142.44 18.2a10.6 10.6 0 0 0 7.56 3.13V104.9a10.67 10.67 0 0 0-7.56 18.2z"/></svg>